<mxfile host="app.diagrams.net" agent="Mozilla/5.0 (X11; Linux x86_64) AppleWebKit/537.36 (KHTML, like Gecko) Chrome/130.0.0.0 YaBrowser/24.12.0.0 Safari/537.36" version="26.0.6" pages="2">
  <diagram name="Исходная схема" id="-H_mtQnk-PTXWXPvYvuk">
    <mxGraphModel dx="803" dy="464" grid="1" gridSize="10" guides="1" tooltips="1" connect="1" arrows="1" fold="1" page="1" pageScale="1" pageWidth="1169" pageHeight="827" math="0" shadow="0">
      <root>
        <mxCell id="0" />
        <mxCell id="1" parent="0" />
        <mxCell id="zA23MoTUsTF4_91t8viU-2" value="MongoDB" style="shape=cylinder3;whiteSpace=wrap;html=1;boundedLbl=1;backgroundOutline=1;size=15;" parent="1" vertex="1">
          <mxGeometry x="340" y="270" width="60" height="80" as="geometry" />
        </mxCell>
        <mxCell id="zA23MoTUsTF4_91t8viU-3" value="pymongo-api" style="rounded=1;whiteSpace=wrap;html=1;" parent="1" vertex="1">
          <mxGeometry x="180" y="280" width="120" height="60" as="geometry" />
        </mxCell>
        <mxCell id="KZMLMT2GWa9n87FyAaTO-7" value="" style="endArrow=classic;html=1;rounded=0;exitX=1;exitY=0.5;exitDx=0;exitDy=0;" edge="1" parent="1" source="zA23MoTUsTF4_91t8viU-3">
          <mxGeometry width="50" height="50" relative="1" as="geometry">
            <mxPoint x="570" y="390" as="sourcePoint" />
            <mxPoint x="340" y="310" as="targetPoint" />
          </mxGeometry>
        </mxCell>
      </root>
    </mxGraphModel>
  </diagram>
  <diagram id="UtfypcnKrECylaxbwVHj" name="Задание 1. Планирование">
    <mxGraphModel dx="669" dy="386" grid="1" gridSize="10" guides="1" tooltips="1" connect="1" arrows="1" fold="1" page="1" pageScale="1" pageWidth="827" pageHeight="1169" math="0" shadow="0">
      <root>
        <mxCell id="0" />
        <mxCell id="1" parent="0" />
        <mxCell id="qZA9wCk3B2SSwnntFXXR-1" value="MongoDB&lt;div&gt;шард 1&lt;/div&gt;" style="shape=cylinder3;whiteSpace=wrap;html=1;boundedLbl=1;backgroundOutline=1;size=15;" vertex="1" parent="1">
          <mxGeometry x="560" y="210" width="60" height="80" as="geometry" />
        </mxCell>
        <mxCell id="qZA9wCk3B2SSwnntFXXR-2" value="pymongo-api" style="rounded=1;whiteSpace=wrap;html=1;" vertex="1" parent="1">
          <mxGeometry x="60" y="255" width="120" height="60" as="geometry" />
        </mxCell>
        <mxCell id="qZA9wCk3B2SSwnntFXXR-3" value="роутер 1" style="rounded=1;whiteSpace=wrap;html=1;" vertex="1" parent="1">
          <mxGeometry x="400" y="220" width="120" height="60" as="geometry" />
        </mxCell>
        <mxCell id="qZA9wCk3B2SSwnntFXXR-4" value="роутер 2" style="rounded=1;whiteSpace=wrap;html=1;" vertex="1" parent="1">
          <mxGeometry x="400" y="310" width="120" height="60" as="geometry" />
        </mxCell>
        <mxCell id="qZA9wCk3B2SSwnntFXXR-5" value="MongoDB&lt;div&gt;шард 2&lt;/div&gt;" style="shape=cylinder3;whiteSpace=wrap;html=1;boundedLbl=1;backgroundOutline=1;size=15;" vertex="1" parent="1">
          <mxGeometry x="560" y="310" width="60" height="80" as="geometry" />
        </mxCell>
        <mxCell id="qZA9wCk3B2SSwnntFXXR-6" value="" style="endArrow=classic;html=1;rounded=0;entryX=0;entryY=0.5;entryDx=0;entryDy=0;entryPerimeter=0;exitX=1;exitY=0.5;exitDx=0;exitDy=0;" edge="1" parent="1" source="qZA9wCk3B2SSwnntFXXR-3" target="qZA9wCk3B2SSwnntFXXR-1">
          <mxGeometry width="50" height="50" relative="1" as="geometry">
            <mxPoint x="490" y="310" as="sourcePoint" />
            <mxPoint x="540" y="260" as="targetPoint" />
          </mxGeometry>
        </mxCell>
        <mxCell id="qZA9wCk3B2SSwnntFXXR-7" value="" style="endArrow=classic;html=1;rounded=0;entryX=-0.014;entryY=0.539;entryDx=0;entryDy=0;entryPerimeter=0;exitX=0.997;exitY=0.72;exitDx=0;exitDy=0;exitPerimeter=0;" edge="1" parent="1" source="qZA9wCk3B2SSwnntFXXR-4" target="qZA9wCk3B2SSwnntFXXR-5">
          <mxGeometry width="50" height="50" relative="1" as="geometry">
            <mxPoint x="530" y="260" as="sourcePoint" />
            <mxPoint x="570" y="260" as="targetPoint" />
          </mxGeometry>
        </mxCell>
        <mxCell id="qZA9wCk3B2SSwnntFXXR-8" value="" style="endArrow=classic;html=1;rounded=0;exitX=1;exitY=0.5;exitDx=0;exitDy=0;" edge="1" parent="1" source="qZA9wCk3B2SSwnntFXXR-2">
          <mxGeometry width="50" height="50" relative="1" as="geometry">
            <mxPoint x="450" y="365" as="sourcePoint" />
            <mxPoint x="220" y="285" as="targetPoint" />
          </mxGeometry>
        </mxCell>
        <mxCell id="qZA9wCk3B2SSwnntFXXR-9" value="Драйвер" style="rounded=1;whiteSpace=wrap;html=1;" vertex="1" parent="1">
          <mxGeometry x="220" y="255" width="120" height="60" as="geometry" />
        </mxCell>
        <mxCell id="qZA9wCk3B2SSwnntFXXR-10" value="Конфигурационный сервер" style="rounded=1;whiteSpace=wrap;html=1;" vertex="1" parent="1">
          <mxGeometry x="400" y="430" width="120" height="60" as="geometry" />
        </mxCell>
        <mxCell id="C6k6dX5uy_wFuOsd954q-1" value="" style="endArrow=none;dashed=1;html=1;strokeWidth=2;rounded=0;entryX=0.5;entryY=1;entryDx=0;entryDy=0;exitX=0.5;exitY=0;exitDx=0;exitDy=0;" edge="1" parent="1" source="qZA9wCk3B2SSwnntFXXR-4" target="qZA9wCk3B2SSwnntFXXR-3">
          <mxGeometry width="50" height="50" relative="1" as="geometry">
            <mxPoint x="390" y="370" as="sourcePoint" />
            <mxPoint x="440" y="320" as="targetPoint" />
          </mxGeometry>
        </mxCell>
        <mxCell id="C6k6dX5uy_wFuOsd954q-3" value="" style="endArrow=classic;html=1;rounded=0;entryX=0;entryY=0.5;entryDx=0;entryDy=0;exitX=0.998;exitY=0.425;exitDx=0;exitDy=0;exitPerimeter=0;" edge="1" parent="1" source="qZA9wCk3B2SSwnntFXXR-9" target="qZA9wCk3B2SSwnntFXXR-3">
          <mxGeometry width="50" height="50" relative="1" as="geometry">
            <mxPoint x="350" y="300" as="sourcePoint" />
            <mxPoint x="380" y="250" as="targetPoint" />
            <Array as="points">
              <mxPoint x="370" y="280" />
              <mxPoint x="370" y="250" />
            </Array>
          </mxGeometry>
        </mxCell>
        <mxCell id="C6k6dX5uy_wFuOsd954q-4" value="" style="endArrow=classic;html=1;rounded=0;entryX=0;entryY=0.5;entryDx=0;entryDy=0;exitX=1;exitY=0.75;exitDx=0;exitDy=0;" edge="1" parent="1" source="qZA9wCk3B2SSwnntFXXR-9" target="qZA9wCk3B2SSwnntFXXR-4">
          <mxGeometry width="50" height="50" relative="1" as="geometry">
            <mxPoint x="350" y="295" as="sourcePoint" />
            <mxPoint x="410" y="260" as="targetPoint" />
            <Array as="points">
              <mxPoint x="370" y="300" />
              <mxPoint x="370" y="320" />
              <mxPoint x="370" y="340" />
            </Array>
          </mxGeometry>
        </mxCell>
        <mxCell id="C6k6dX5uy_wFuOsd954q-5" value="" style="endArrow=classic;html=1;rounded=0;exitX=0.489;exitY=0.99;exitDx=0;exitDy=0;exitPerimeter=0;" edge="1" parent="1" source="qZA9wCk3B2SSwnntFXXR-4">
          <mxGeometry width="50" height="50" relative="1" as="geometry">
            <mxPoint x="260" y="290" as="sourcePoint" />
            <mxPoint x="459" y="430" as="targetPoint" />
          </mxGeometry>
        </mxCell>
        <mxCell id="C6k6dX5uy_wFuOsd954q-6" value="" style="endArrow=none;dashed=1;html=1;strokeWidth=2;rounded=0;entryX=0.5;entryY=1;entryDx=0;entryDy=0;entryPerimeter=0;exitX=0.5;exitY=0;exitDx=0;exitDy=0;exitPerimeter=0;" edge="1" parent="1" source="qZA9wCk3B2SSwnntFXXR-5" target="qZA9wCk3B2SSwnntFXXR-1">
          <mxGeometry width="50" height="50" relative="1" as="geometry">
            <mxPoint x="440" y="340" as="sourcePoint" />
            <mxPoint x="490" y="290" as="targetPoint" />
          </mxGeometry>
        </mxCell>
        <mxCell id="C6k6dX5uy_wFuOsd954q-7" value="" style="endArrow=classic;html=1;rounded=0;entryX=1;entryY=0.5;entryDx=0;entryDy=0;exitX=0.5;exitY=1;exitDx=0;exitDy=0;exitPerimeter=0;" edge="1" parent="1" source="qZA9wCk3B2SSwnntFXXR-5" target="qZA9wCk3B2SSwnntFXXR-10">
          <mxGeometry width="50" height="50" relative="1" as="geometry">
            <mxPoint x="370" y="410" as="sourcePoint" />
            <mxPoint x="420" y="360" as="targetPoint" />
            <Array as="points">
              <mxPoint x="590" y="460" />
            </Array>
          </mxGeometry>
        </mxCell>
      </root>
    </mxGraphModel>
  </diagram>
</mxfile>
